<svg id="Layer_1" data-name="Layer 1" xmlns="http://www.w3.org/2000/svg" viewBox="0 0 303.41 303.41"><title>Untitled-2</title><path d="M303.41,172.09c-1.1,0-2.21-.1-3.31-.1h-209V107.55c-2.77-.34-5.35-.54-7.89-1-6.81-1.23-13.44-3.31-19.06-7.35-4.16-3-8.43-3.47-13.48-2.87v15H2.84c-.95,0-1.89.06-2.84.1V0H50.73V9.51A19.89,19.89,0,0,0,63.79,8c6-2.75,12.15-5.33,18.23-8h72.05a3.31,3.31,0,0,0,.86.35c10.93,1.37,20,6.28,27.69,14.11,8,8.12,16.09,16.08,24.08,24.17A5.52,5.52,0,0,0,211,40.44q45-.07,90,0c.78,0,1.57-.07,2.36-.1ZM84.06,56.82c14,11.5,27.49,10.82,40.64-1.16.73.7,1.36,1.27,2,1.87Q140.42,71.27,154.14,85c3,3,6.55,4.08,10.61,2.8,7.39-2.32,9.41-11.26,3.79-17-7-7.12-14.06-14.1-21.1-21.14l-14-14c2.34-2.5,4.57-4.9,7-7.44,3.59,3.6,7.1,7.23,10.75,10.7a5.24,5.24,0,0,0,3.25,1.36c12.4.1,24.8.07,37.2.06.65,0,1.29-.11,2.35-.21-6.41-6.4-12.57-12.4-18.55-18.57C167.8,13.73,158.57,10,147.64,10.07c-16.59.1-33.18,0-49.76,0C78.79,10.2,85.12,8.76,68.36,17a27,27,0,0,1-13.71,3c-1.31-.07-2.62,0-3.84,0V85.91c2.87,0,5.56.11,8.23,0a8.49,8.49,0,0,1,5.71,1.71c4.82,3.48,10,6.44,15.78,7.89,3.37.84,6.83,1.34,10.49,2,0-8.22,0-15.79-.07-23.36a2.8,2.8,0,0,0-1.52-1.9,41.49,41.49,0,0,1-11.64-7.72Zm174,3.85c-.66,7.49.57,14.07,5.83,19.38s12.06,6.33,19.13,5.83v40.66c-7.26-.59-13.87.53-19.16,5.83s-6.39,12.06-5.9,19.15H136.43c.64-7.3-.58-13.87-5.85-19.19s-12.05-6.33-19.13-5.82V85.83c8.36.72,15.67-1,20.81-7.86l-8.64-8.62A37.13,37.13,0,0,1,101.31,75v86.61H293.15V50.84H162.81c3.07,3,5.82,5.62,8.43,8.35a4.65,4.65,0,0,0,3.73,1.5q39.94-.06,79.88,0ZM121.46,116.55c.51.17.94.36,1.4.48,12,3,19.68,10.56,22.89,22.49.49,1.82,1.27,2.11,2.9,2.11q48.57,0,97.16,0c1.91,0,2.47-.67,2.93-2.39,3.1-11.37,10.43-18.65,21.7-22,.82-.24,1.66-.43,2.54-.66V95.84c-.55-.18-1.06-.38-1.58-.51-11.79-3.06-19.4-10.44-22.64-22.18-.51-1.87-1.22-2.43-3.15-2.42-20.86.08-41.71,0-62.57.06-.74,0-1.49.09-2.47.15,2.15,5.59,1.64,10.91-.76,16.67,13.66-10.83,28.47-6.86,36.07,1.06a25.62,25.62,0,0,1-29.19,41.06,24.82,24.82,0,0,1-12.35-12.26c-3.66-7.88-3.18-15.71.75-23.71a10.67,10.67,0,0,0-1,.5c-9.68,6.49-19.58,5.52-27.83-2.77-2.11-2.11-4.11-4.34-6.32-6.68a31.63,31.63,0,0,1-18.5,10.92ZM10.1,100.94H40.2V10.1H37.66c-8.29,0-16.58.08-24.87-.06-2.23,0-2.74.66-2.74,2.79q.1,42.77,0,85.52Zm187.21,20.4a15.15,15.15,0,1,0-15.25-15.17A15.21,15.21,0,0,0,197.31,121.34Z"/><path d="M154.07,303.41c-6.36-1.19-11.59-4.76-17-8Q94.63,270,52.16,244.58a20.23,20.23,0,0,1,20-35.2q24.5,13.17,48.93,26.44c.76.42,1.53.82,2.32,1.24.2-.18.43-.3.51-.49,3-6.9,8.32-10.77,15.52-12.65,18.77-4.9,37.46-10.08,56.24-15a56,56,0,0,1,11.68-1.61c6.31-.26,12.64-.07,19-.07a26.75,26.75,0,0,1,14.19,3.91c3.95,2.4,7.94,4.75,12.3,7.37V202.49c.86-.08,1.47-.19,2.07-.19h46.92c.55,0,1.1.09,1.65.14v101H252.68v-7.29l-20.38,7.29Zm49.5-54.68L197,250.5c-15.92,4.24-31.8,8.64-47.78,12.68-12.77,3.22-21.41-1.58-26.11-13.89a3.91,3.91,0,0,0-1.75-1.73q-26.84-14.55-53.72-29c-5.43-2.93-11.4-1.36-14.16,3.63s-1.08,10.77,4.28,14Q103.4,263.43,149,290.72a17.94,17.94,0,0,0,9.45,2.6c23.06,0,46.13,0,69.19-.06a21.2,21.2,0,0,0,6.92-1.24c5.57-2,11-4.33,16.54-6.42a2.34,2.34,0,0,0,1.73-2.61q-.07-25.35,0-50.71a3,3,0,0,0-1.78-2.94c-5.25-3.06-10.46-6.2-15.65-9.35a16.57,16.57,0,0,0-9-2.51c-6.16.06-12.32-.14-18.48.08a48.56,48.56,0,0,0-10.26,1.4c-12.38,3.15-24.7,6.54-37,9.84-6.78,1.81-13.58,3.56-20.34,5.44a10.18,10.18,0,0,0-7.38,12.27,9.61,9.61,0,0,0,12,7.14c13.16-3.27,26.25-6.81,39.37-10.25,5.53-1.45,11.05-2.93,16.7-4.43C201.87,242.34,202.7,245.44,203.57,248.73Zm59.53,44.58h2.61c8.29,0,16.59-.07,24.88.05,2.17,0,2.78-.57,2.77-2.76-.08-25.19-.05-50.39-.05-75.59v-2.47H263.1Z"/></svg>